PathFileType	4	(X/Y/Z)	Patient4_TMGait_0pt4_03_left_36.trc.trc
DataRate	CameraRate	NumFrames	NumMarkers	Units	OrigDataRate	OrigDataStartFrame	OrigNumFrames
72.164948453608	72.164948453608	6	33	mm	72.164948453608	18	       141
Frame#	Time	Sacral			L.Shoulder			Chest			R.Shoulder			Neck			R.ASIS			L.ASIS			R.Thigh.Superior			R.Thigh.Lateral			R.Thigh.Inferior			R.Patella			L.Thigh.Superior			L.Thigh.Lateral			L.Thigh.Inferior			L.Patella			L.Shank.Superior			L.Shank.Lateral			L.Shank.Inferior			R.Shank.Superior			R.Shank.Lateral			R.Shank.Inferior			R.Heel			R.Midfoot.Superior			R.Midfoot.Lateral			R.Toe			L.Heel			L.Midfoot.Lateral			L.Midfoot.Superior			L.Toe			L.Elbow			L.Wrist			R.Elbow			R.Wrist			
		X1	Y1	Z1	X2	Y2	Z2	X3	Y3	Z3	X4	Y4	Z4	X5	Y5	Z5	X6	Y6	Z6	X7	Y7	Z7	X8	Y8	Z8	X9	Y9	Z9	X10	Y10	Z10	X11	Y11	Z11	X12	Y12	Z12	X13	Y13	Z13	X14	Y14	Z14	X15	Y15	Z15	X16	Y16	Z16	X17	Y17	Z17	X18	Y18	Z18	X19	Y19	Z19	X20	Y20	Z20	X21	Y21	Z21	X22	Y22	Z22	X23	Y23	Z23	X24	Y24	Z24	X25	Y25	Z25	X26	Y26	Z26	X27	Y27	Z27	X28	Y28	Z28	X29	Y29	Z29	X30	Y30	Z30	X31	Y31	Z31	X32	Y32	Z32	X33	Y33	Z33	

18	47.885571428571	860.065917109041	1008.258392550853	521.695108168219	1019.507219452605	1436.764985396247	327.378185517593	1144.639376888628	1364.229513120555	470.433624705804	1088.919625784452	1435.399138206299	656.726965642251	1029.512674584595	1496.495136134862	485.314404321310	1099.327098032388	939.175578243257	608.121301967204	1053.031109240284	965.381326299076	337.981297289432	1105.411359987283	729.743967244947	576.806920384790	1013.092334962423	629.816081087355	644.412286616970	1072.125729012598	569.486046467921	558.887205110409	1059.294037248987	484.552295873350	564.394380828699	1124.260631148927	776.267459306538	355.574439880547	1070.477300088591	650.359132380957	277.921850242930	1175.971898570487	588.844028166565	333.373322334433	1202.800794479510	526.486712704132	326.721982641756	1186.586159418191	456.693351156345	315.838961811019	1120.754296501613	326.102094470180	265.291960861063	1213.611987035461	227.357807714000	312.332050914182	1025.200232562074	398.286892460164	571.869318514326	950.081758308661	299.534851746611	638.315739456716	978.486234145796	203.133753452327	569.544611604282	832.323872362767	42.895776028943	547.456435544845	1005.740871900406	96.048624227880	571.477910973633	920.383956249438	37.240945235733	616.652374266595	1127.684595630954	42.213089950134	591.029290800913	1136.135895240538	47.646896093392	353.047019940669	1208.038840429111	49.890996478014	271.287051885655	1279.534031311361	128.703694741690	288.887226299960	1412.584232910506	98.785830106319	259.612920644493	901.746260530404	1100.737279587041	229.158356211098	906.249156085897	842.048601674441	190.154272098470	1174.032745706220	1104.151843371029	782.389237133207	1401.988753266449	1038.767223138274	687.377870365964	
19	47.899428571429	860.499450697307	1007.125058228232	520.582852842290	1018.403707528483	1435.745149660260	325.492387396561	1143.980723239788	1363.681124628167	468.385453835579	1088.352678130797	1434.819886843209	654.722666813385	1028.320183515905	1495.653740707967	483.274521853357	1100.029477760607	938.442155257275	606.702635244918	1053.267076721067	964.363117728535	336.500739615197	1105.257601943103	728.632359915390	575.310194095233	1012.568923223938	628.973083388470	643.185784230519	1070.788714602972	568.476097727144	557.401877203983	1057.321856313615	483.344614571587	562.859317031426	1124.335265335752	774.610803633994	354.535042726449	1069.002575724565	648.083516568758	278.750889448516	1174.584785810751	586.658662258443	333.579711530850	1200.834720853718	524.291412225806	327.913327422784	1184.628327137899	454.256017437543	317.607454230866	1118.561631567387	323.561287955253	268.205118728497	1211.180594691140	225.085744614661	315.766118025742	1022.554958254169	397.168081042777	570.675229643846	946.909579970614	299.111614787517	637.564821324408	974.009559067474	202.429958269617	568.867272499489	826.711082679813	42.794048811764	547.438263783765	1000.040759491748	95.940789740763	571.324656222697	914.741572322925	37.182320808762	616.671924364905	1122.025782294093	42.274709690178	591.067600583972	1133.058336508953	46.679978565542	357.481914465837	1204.981932386062	47.840793490716	275.792498202491	1277.143415836708	125.701090912368	293.192077285667	1409.775933800045	94.314717152766	264.266833185424	901.262173963774	1099.318251230306	228.012381371267	905.906318163429	840.588561106410	189.433696222108	1174.402271996136	1103.051848501644	778.540762581589	1401.500058912823	1039.219353044618	680.704636185270	
20	47.913285714286	861.159847376356	1005.801831847010	519.325085170092	1017.115674012509	1434.558558405331	323.370018341359	1143.243048015978	1363.156203329193	466.102289809880	1087.656178689574	1434.254018022917	652.475377510656	1026.961193637675	1494.701039568819	480.970588462668	1100.993698653089	937.628864646537	605.131576131307	1053.786289337270	963.265443720033	334.915350379399	1105.456871191446	727.434414459898	573.650884887926	1012.462116062264	628.008996147769	641.845090245636	1069.887803017215	567.358131847413	555.809307887498	1055.743619966670	481.983543035602	561.211162531161	1125.103976731601	773.042346100718	353.464069363410	1068.221406544809	645.785271841039	279.738213574943	1173.878139921169	584.559201828146	334.039389488322	1199.309626736849	521.762389030383	329.410194677215	1182.676129263493	451.310002811466	319.643380038619	1115.404381831848	321.067646608079	271.342357473585	1206.906859934564	222.187383137432	319.560513962321	1020.222752194869	395.915336364290	569.399833598399	943.969634659451	298.639430882083	636.743430237300	969.651980263561	201.653353816369	568.152418448680	821.109657627442	42.690111000152	547.424017748592	994.352362760689	95.822858427935	571.151609980781	909.107119866467	37.113643015498	616.685144438714	1116.371347011288	42.323351440296	591.103471582230	1126.748537293141	45.689920328419	362.131252849534	1198.558291185248	45.687082974185	280.376316684500	1271.919040816442	121.961122262690	297.830392538981	1403.879827510823	88.357602392475	268.846783789247	901.102203724559	1097.563208920225	226.539482384306	906.603042059454	838.815223675274	188.253199838942	1174.314493263307	1102.054902614041	774.936529460440	1400.309929782311	1039.103963492344	674.209058263353	
21	47.927142857143	862.032534051302	1004.306986574413	517.931981260179	1015.674721099251	1433.205242777929	321.016679357155	1142.447043109337	1362.648957327661	463.593519090116	1086.850821825729	1433.697097523466	649.994988064367	1025.470677345004	1493.642545239806	478.413329107886	1102.212127815566	936.734675783010	603.419276867139	1054.576054433325	962.101815212005	333.240987765428	1106.006410925002	726.151795672452	571.854854436927	1012.746205952963	626.927915285286	640.393877966964	1069.408525087308	566.125029432973	554.126568144008	1054.537756420044	480.470518956575	559.453999275509	1126.493018212291	771.508592196864	352.410836969945	1068.088598075460	643.502892397476	280.805223200962	1173.757273458474	582.528414936264	334.782628778568	1198.142524087280	518.952229166328	331.222557371969	1180.773797139444	447.970528979956	321.869606077528	1111.594494543843	318.617359162696	274.472592411388	1201.259454187565	218.793935073366	323.518173348806	1018.178389580810	394.541443038969	568.040018826929	941.247414623060	298.128434779441	635.856104747054	965.406953694619	200.818534872621	567.401422040067	815.523571761637	42.598270705594	547.414633311220	988.683473080960	95.699647315822	570.958903194678	903.486731391344	37.042128041574	616.688087799883	1110.728073977570	42.344217529440	591.137456848008	1117.980284508276	44.602296418121	366.673726844332	1189.599799671435	43.508813878456	284.759756664551	1264.516430961861	117.732291159473	302.585508562390	1395.662778952352	81.446906000950	273.218516431911	901.243444003985	1095.490241664022	224.763051261755	908.307300814728	836.753713987630	186.623692220197	1173.786037849967	1101.149253579156	771.608119304554	1398.446831339342	1038.392795789192	667.948744984485	
22	47.941000000000	863.090998991535	1002.682468833689	516.422398025702	1014.125737382607	1431.704013259429	318.442124042506	1141.620882673429	1362.161864354937	460.872002981023	1085.972859173382	1433.161419705089	647.293277431756	1023.896628832772	1492.502229430772	475.614830310372	1103.662873294848	935.771232167968	601.582076787293	1055.599143509308	960.905632845363	331.493291048216	1106.885323566434	724.799932424560	569.952954140144	1013.372831787911	625.749594800020	638.833597040361	1069.313804098851	564.785388874424	552.367061867570	1053.670515125611	478.820412851451	557.591460921858	1128.389299470797	769.983965786655	351.415837302077	1068.535137711152	641.307026390739	281.844078908429	1174.119222819355	580.583448118169	335.773289870503	1197.264997746601	515.972036391339	333.273306142105	1178.986254766240	444.413174452279	324.151972599493	1107.488033504830	316.254576381571	277.351042883175	1194.777748046075	215.118546481280	327.408224396326	1016.384985744380	393.074598017567	566.592464467949	938.719072071313	297.602140866591	634.909066847225	961.264174100783	199.953396149991	566.617375911843	809.956277581645	42.545254497678	547.412634114433	983.044682889114	95.580033156550	570.749627692807	897.887051796865	36.980735064342	616.677497330433	1105.104082399226	42.321484205183	591.170580698957	1107.645923711832	43.422980861863	370.816540098175	1179.053503037959	41.427726870989	288.693682470884	1255.688642181108	113.337680672052	307.213130113824	1385.985545575642	74.202682278751	277.241465302614	901.675238826163	1093.139080572604	222.709269551860	910.975513395494	834.452478002741	184.568020142268	1172.831602457525	1100.329863791538	768.562675751573	1395.938989013159	1037.056996387785	661.977014739905	
23	47.954857142857	864.299580597108	1000.993162240227	514.821840846784	1012.521433902250	1430.094690087925	315.662885662144	1140.797704867794	1361.707412773270	457.954423252355	1085.073462281182	1432.676860989522	644.384893508740	1022.295454506295	1491.322874544717	472.591027917686	1105.309507255299	934.764906109132	599.638056236237	1056.796483994788	959.728719566085	329.683456898985	1108.051238149850	723.410366092974	567.974388634490	1014.275142145954	624.511008855999	637.164334380386	1069.547530798157	563.366133610722	550.540368759148	1053.101819930167	477.062024786682	555.632072394969	1130.651677317120	768.481770779116	350.500454085218	1069.479872313695	639.292980121507	282.727582782074	1174.865651467465	578.775157486388	336.909703779397	1196.636382991459	512.979472363337	335.404857834387	1177.394910931004	440.850584099640	326.317528281243	1103.444961190387	314.059635902047	279.745279268013	1188.008494961754	211.417804299291	330.992920515669	1014.799476931090	391.557987005203	565.058557020829	936.353217156376	297.098194833514	633.911329806632	957.211874140791	199.099169905015	565.807446451845	804.411013691587	42.572107266411	547.422110792663	977.450408405259	95.476971786012	570.530833805462	892.314988704604	36.948933375231	616.651667384155	1099.508701849840	42.240313710658	591.204272431332	1096.647828531683	42.215035217180	374.329995631856	1167.864525907762	39.571241919553	291.986460956401	1246.196441804387	109.117755450489	311.465554940953	1375.700410264633	67.238135188710	280.775931206045	902.399302709760	1090.572116974028	220.404971872203	914.557097568571	831.984087172555	182.118838061831	1171.463230619677	1099.601285835632	765.783699937435	1392.812419510454	1035.068076229522	656.341662269178	
